<svg height="512" viewBox="0 0 512 512" width="512" xmlns="http://www.w3.org/2000/svg"><g id="filled_outline" data-name="filled outline"><circle cx="459.76" cy="187.931" fill="#faa6b2" r="28.069"/><circle cx="95.999" cy="162.43" fill="#faa6b2" r="24.001"/><path d="m248 112h72v136h-72z" fill="#6ee7f5"/><path d="m277.169 384c-.206-.007-75.685 36.8-75.685 36.8l-17.246 8.37a73.533 73.533 0 0 1 -60.164 1.817l-45.407 21.986-46.667-100.973 63.615-35.771 25.171-60.978 30.372-64.859a16 16 0 0 1 16.826-9.043l.663.1a22 22 0 0 1 17.338 29.621l-6.245 16.33a67.6 67.6 0 0 0 2.025 53.021l110.043-69.554a18.373 18.373 0 0 1 24.867 4.992 18.374 18.374 0 0 1 -3.888 25.134c-11.294 8.646-24.526 18.393-37.173 27.565z" fill="#f6bb92"/><path d="m309.69 274.033 34.535-13.912a20.123 20.123 0 0 1 26.3 8.593 20.192 20.192 0 0 1 -8.828 27.828" fill="none" stroke="#000" stroke-linecap="round" stroke-linejoin="round" stroke-width="16"/><path d="m138.662 379.973a8 8 0 0 1 -3.138-15.363l15.793-6.724a56.347 56.347 0 0 0 5.283-2.586 8 8 0 0 1 7.774 13.985 72.488 72.488 0 0 1 -6.791 3.321l-15.792 6.724a7.978 7.978 0 0 1 -3.129.643z" fill="#e6af89"/><circle cx="64" cy="248" fill="#ffd6db" r="24"/><circle cx="68.427" cy="120.001" fill="#ffd6db" r="32"/><path d="m412.872 347.531-46.935-46.631a100 100 0 0 0 -57.272-28.188l-33.965-4.532a34.205 34.205 0 0 0 -31.675 18.36l-10.9-.541a20.409 20.409 0 0 0 -19.485 11.707l-4.143 8.82-3.859.028a20.409 20.409 0 0 0 -19.119 13.662l-3.283 9.373a20.293 20.293 0 0 0 -22.853 16.193l-.729 3.733a20.293 20.293 0 0 0 16.929 23.96l85.378 12.713a28 28 0 0 1 20.923 15.177l5.989 11.984-51.3-4.869a28 28 0 0 0 -26.273 29.62l.075 1.264a16 16 0 0 0 13.482 14.852l35.2 5.546 45.389 19.252a58.432 58.432 0 0 0 36.967 2.9l36.762-9.176 21.825 15.262 72-88.412z" fill="#fdc9a6"/><path d="m273.43 341.17a8 8 0 0 1 -7.93 6.99 8.681 8.681 0 0 1 -1.01-.06l-99.67-12.65a20.254 20.254 0 0 1 14.45-6.08 19.757 19.757 0 0 1 2.96.22l2.71-7.72 81.56 10.35a8 8 0 0 1 6.93 8.95z" fill="#fdc9a6"/><path d="m273.43 341.17a8 8 0 0 1 -7.93 6.99 8.681 8.681 0 0 1 -1.01-.06l-99.67-12.65a20.254 20.254 0 0 1 14.45-6.08 19.757 19.757 0 0 1 2.96.22z" fill="#e6af89"/><path d="m243 286.56 50.025 6.982" fill="none" stroke="#000" stroke-linecap="round" stroke-linejoin="round" stroke-width="16"/><circle cx="415.358" cy="169.764" fill="#ffd6db" r="36.543"/><circle cx="258" cy="290" fill="#f3bdbe" r="54"/><circle cx="376" cy="296" fill="#f3bdbe" r="64"/><path d="m272 200a8 8 0 0 1 -8-8v-16a8 8 0 0 1 16 0v16a8 8 0 0 1 -8 8z" fill="#43aece"/><path d="m288 160a8 8 0 0 1 -8-8v-16a8 8 0 0 1 16 0v16a8 8 0 0 1 -8 8z" fill="#43aece"/><path d="m276 24h156a0 0 0 0 1 0 0v48a0 0 0 0 1 0 0h-192a0 0 0 0 1 0 0v-12a36 36 0 0 1 36-36z" fill="#cbcbcb"/><path d="m240 72h88v40h-88z" fill="#eaeae8"/><circle cx="304" cy="256" fill="#ffc7c8" r="48"/><circle cx="304" cy="312" fill="#ffd6db" r="32"/><path d="m491.3 170.142a35.823 35.823 0 0 0 -21.766-16.972 36.213 36.213 0 0 0 -13.3-1.111 45.428 45.428 0 0 0 -2.125-4.267 44.531 44.531 0 1 0 -21.9 63.2 35.785 35.785 0 0 0 18.119 11.7 35.837 35.837 0 0 0 27.391-3.39 36.063 36.063 0 0 0 13.581-49.16zm-100.77 13.7a28.543 28.543 0 1 1 38.908 10.749 28.358 28.358 0 0 1 -38.908-10.747zm88.739 9.429a20.055 20.055 0 0 1 -33.4 8.959 44.662 44.662 0 0 0 14-34.365 20.065 20.065 0 0 1 19.4 25.406z"/><path d="m64 216a32 32 0 1 0 32 32 32.036 32.036 0 0 0 -32-32zm0 48a16 16 0 1 1 16-16 16.019 16.019 0 0 1 -16 16z"/><path d="m43.5 151.286a39.753 39.753 0 0 0 20.631 8.465 32.177 32.177 0 0 0 11.926 27.7 32 32 0 1 0 30.456-55.251 40 40 0 1 0 -63.013 19.086zm65.013 21.114a16 16 0 0 1 -27.908-14.32 39.744 39.744 0 0 0 17.695-11.48 15.852 15.852 0 0 1 7.672 3.312 16.019 16.019 0 0 1 2.541 22.488zm-58.857-67.354a24 24 0 1 1 3.816 33.726 24.029 24.029 0 0 1 -3.816-33.726z"/><path d="m477.287 393.583-51.667-45.483a71.982 71.982 0 0 0 -73.181-120.143 56.377 56.377 0 0 0 -24.439-22.543v-85.414a8 8 0 0 0 8-8v-32h96a8 8 0 0 0 8-8v-48a8 8 0 0 0 -8-8h-156a44.049 44.049 0 0 0 -44 44v52a8 8 0 0 0 8 8v110.673a62.255 62.255 0 0 0 -33.267 24.5l-20.992 13.268a59.923 59.923 0 0 1 1.472-38.187l6.245-16.333a30 30 0 0 0 -23.646-40.392l-.661-.1a23.852 23.852 0 0 0 -25.237 13.571l-30.373 64.859c-.052.112-.1.225-.15.34l-24.113 58.416-61.2 34.412a8 8 0 0 0 -3.341 10.329l46.668 100.973a8 8 0 0 0 10.748 3.844l42.281-20.467a81.619 81.619 0 0 0 63.3-3.334l15.317-7.435a35.886 35.886 0 0 0 -.731 9.638l.076 1.263a24.142 24.142 0 0 0 20.222 22.277l34.227 5.394 44.483 18.866a66.835 66.835 0 0 0 42.028 3.3l33.227-8.293 18.834 13.176a8 8 0 0 0 10.789-1.5l72-88.412a8 8 0 0 0 -.919-11.063zm-101.287-153.583a56 56 0 1 1 -39.676 95.523 39.876 39.876 0 0 0 5.03-37.805 55.936 55.936 0 0 0 17.065-54.9 55.684 55.684 0 0 1 17.581-2.818zm-96 72a24 24 0 1 1 24 24 24.028 24.028 0 0 1 -24-24zm64-56a40.039 40.039 0 0 1 -11.458 28.013 39.913 39.913 0 0 0 -57.087 0 40 40 0 1 1 68.545-28.013zm-24-152h-72v-24h72zm-72-44a28.032 28.032 0 0 1 28-28h148v32h-176zm64 60v80.581a55.9 55.9 0 0 0 -56 26.609v-107.19zm-62.885 124.869a56.026 56.026 0 0 0 17.529 52.853 39.894 39.894 0 0 0 4.091 36.463 45.991 45.991 0 1 1 -21.62-89.316zm-42.528 79.747-13.535-1.716.013-.038a12.436 12.436 0 0 1 8.245-7.8 61.915 61.915 0 0 0 5.277 9.554zm-25.842 97.361a65.594 65.594 0 0 1 -53.619 1.62 7.993 7.993 0 0 0 -6.538.194l-38.076 18.432-40.15-86.871 57.174-32.152a8 8 0 0 0 3.474-3.921l25.1-60.807 30.29-64.688a7.95 7.95 0 0 1 8.414-4.521l.661.1a14 14 0 0 1 11.033 18.849l-6.244 16.333a75.954 75.954 0 0 0 2.264 59.3 8 8 0 0 0 11.508 3.344l10.7-6.766a62.014 62.014 0 0 0 .027 19.313 28.471 28.471 0 0 0 -18.805 17.84l-1.368 3.924a28.263 28.263 0 0 0 -25.064 22.754l-.728 3.733a28.294 28.294 0 0 0 -.137 10.182l-15.137 6.445a8 8 0 1 0 6.268 14.722l15.79-6.724c.05-.021.1-.046.15-.068a28 28 0 0 0 16.669 8.848l68.711 10.231c-3.823 1.86-7.883 3.836-11.944 5.815-16.6 8.086-33.177 16.173-33.177 16.172zm87.276-24.666a20 20 0 0 1 6.211 6.708l-16.761-1.591c4.468-2.172 8.117-3.942 10.55-5.117zm130.472 79.871-15.728-11a8 8 0 0 0 -6.524-1.206l-36.762 9.175a50.751 50.751 0 0 1 -31.906-2.5l-45.389-19.251a7.933 7.933 0 0 0 -1.879-.538l-35.2-5.546a8.049 8.049 0 0 1 -6.74-7.428l-.075-1.262a20.027 20.027 0 0 1 18.191-21.114l50.633 4.806a8 8 0 0 0 7.912-11.54l-5.989-11.984a36.032 36.032 0 0 0 -26.9-19.514l-85.377-12.712a12.3 12.3 0 0 1 -10.26-14.521l.728-3.733a12.283 12.283 0 0 1 13.845-9.809c.027 0 .053 0 .08.008s.046.009.07.012l45.056 5.72a61.923 61.923 0 0 0 57.4 3.19 39.891 39.891 0 0 0 40.827-.108 71.918 71.918 0 0 0 88.105 11.634l48.324 42.544z"/><path d="m272 200a8 8 0 0 0 8-8v-16a8 8 0 0 0 -16 0v16a8 8 0 0 0 8 8z"/><path d="m288 160a8 8 0 0 0 8-8v-16a8 8 0 0 0 -16 0v16a8 8 0 0 0 8 8z"/></g></svg>